<svg width="38" height="38"
     viewBox="0 0 594 580"
     fill="none"
     xmlns="http://www.w3.org/2000/svg">
<path d="M198.679 466.338C198.679 468.733 195.925 470.65 192.451 470.65C188.5 471.009 185.745 469.093 185.745 466.338C185.745 463.942 188.5 462.027 191.971 462.027C195.565 461.668 198.679 463.584 198.679 466.338ZM161.434 460.949C160.596 463.343 162.99 466.098 166.584 466.817C169.696 468.014 173.29 466.817 174.009 464.422C174.727 462.027 172.452 459.273 168.859 458.194C165.745 457.357 162.271 458.554 161.434 460.949ZM214.367 458.913C210.893 459.751 208.499 462.027 208.858 464.782C209.218 467.176 212.332 468.733 215.924 467.895C219.397 467.056 221.792 464.782 221.432 462.385C221.073 460.111 217.84 458.554 214.367 458.913ZM293.167 0C127.063 0 0 126.105 0 292.209C0 425.021 83.5911 538.672 202.99 578.672C218.318 581.426 223.708 571.964 223.708 564.18C223.708 556.755 223.349 515.798 223.349 490.649C223.349 490.649 139.518 508.613 121.914 454.96C121.914 454.96 108.261 420.111 88.6209 411.129C88.6209 411.129 61.1964 392.328 90.5372 392.687C90.5372 392.687 120.357 395.082 136.764 423.585C162.99 469.81 206.942 456.517 224.068 448.614C226.822 429.453 234.607 416.16 243.229 408.255C176.284 400.83 108.74 391.13 108.74 275.922C108.74 242.99 117.842 226.463 137.003 205.385C133.889 197.6 123.71 165.506 140.117 124.069C165.146 116.285 222.75 156.403 222.75 156.403C246.702 149.698 272.449 146.225 297.958 146.225C323.466 146.225 349.214 149.698 373.166 156.403C373.166 156.403 430.77 116.165 455.8 124.069C472.207 165.626 462.027 197.6 458.913 205.385C478.075 226.583 489.811 243.109 489.811 275.922C489.811 391.49 419.273 400.711 352.328 408.255C363.347 417.716 372.687 435.68 372.687 463.823C372.687 504.181 372.329 554.121 372.329 563.94C372.329 571.725 377.837 581.185 393.047 578.431C512.803 538.672 594 425.021 594 292.209C594 126.105 459.271 0 293.167 0ZM116.405 413.046C114.848 414.243 115.207 416.997 117.243 419.273C119.159 421.19 121.914 422.028 123.471 420.471C125.027 419.273 124.668 416.519 122.632 414.243C120.716 412.327 117.962 411.489 116.405 413.046ZM103.471 403.345C102.633 404.902 103.83 406.818 106.225 408.015C108.142 409.213 110.537 408.853 111.375 407.178C112.213 405.621 111.016 403.704 108.621 402.507C106.225 401.788 104.309 402.147 103.471 403.345ZM142.273 445.978C140.356 447.535 141.075 451.129 143.829 453.403C146.584 456.159 150.057 456.517 151.614 454.602C153.171 453.045 152.452 449.452 150.057 447.177C147.422 444.421 143.829 444.063 142.273 445.978ZM128.62 428.374C126.704 429.573 126.704 432.685 128.62 435.441C130.536 438.195 133.77 439.393 135.327 438.195C137.243 436.638 137.243 433.525 135.327 430.77C133.65 428.016 130.536 426.817 128.62 428.374Z" fill="white"/>
</svg>
